<svg width="24" height="16" viewBox="0 0 24 16" fill="none" xmlns="http://www.w3.org/2000/svg">
<path d="M2.49904 0.785516C2.31486 0.870868 2.12619 1.082 2.07228 1.26618C2.0049 1.49977 2.01388 8.02243 2.08126 8.14821C2.20255 8.3818 2.45412 8.42673 2.6338 8.24704L2.74611 8.13923V4.78805V1.44138H9.68654H16.627V4.74763C16.627 7.17341 16.6404 8.07634 16.6809 8.14821C16.8022 8.3818 17.0537 8.42673 17.2334 8.24704C17.3277 8.1572 17.3457 8.0943 17.3457 7.8652V7.59567H19.5604C20.9035 7.59567 21.8334 7.61364 21.9322 7.64059C22.1613 7.70348 22.3725 7.85622 22.5432 8.08083C22.7858 8.39977 22.7768 8.40427 22.085 8.40427C21.4965 8.40427 21.4695 8.40876 21.3662 8.51657C21.2584 8.61989 21.2539 8.65134 21.2539 9.17243C21.2539 9.86423 21.3033 10.0259 21.5908 10.3134C21.8514 10.5785 22.049 10.6504 22.4848 10.6504H22.7813V11.459V12.2675H22.3186H21.8559L21.7166 11.9845C20.8856 10.309 18.4733 10.3134 17.6467 11.989C17.5524 12.1732 17.4805 12.2675 17.4356 12.2586C17.3772 12.2451 17.3637 12.0429 17.3457 10.7986C17.3233 9.20837 17.3277 9.2443 17.0447 9.18591C16.9235 9.16344 16.8785 9.18141 16.7617 9.29372L16.627 9.42848V10.848V12.2675H12.8985H9.17443L9.08009 12.0564C8.68478 11.158 7.67853 10.6009 6.69025 10.7402C5.98048 10.839 5.26622 11.3556 4.96974 11.989L4.83497 12.2675L3.80177 12.2586L2.76857 12.2451V11.8408V11.4365L3.63107 11.423L4.49357 11.414L4.58341 11.2927C4.70919 11.14 4.70021 10.9963 4.56994 10.8435L4.46212 10.7177H2.58888H0.715639L0.607826 10.8435C0.477553 10.9963 0.468568 11.14 0.59435 11.2972L0.684193 11.414H1.35802H2.02736V11.8722C2.02736 12.2226 2.04982 12.3799 2.11271 12.5146C2.30587 12.9369 2.4631 12.9818 3.71193 12.9863H4.70021L4.75861 13.3322C5.05958 15.2279 7.409 15.9287 8.69376 14.5091C8.94982 14.2261 9.20587 13.7095 9.24181 13.4041C9.25529 13.2873 9.27326 13.1435 9.28673 13.0851L9.3047 12.9863H13.3387H17.3727L17.4401 13.3547C17.5344 13.8398 17.7006 14.1857 18.0016 14.5136C18.4957 15.0437 18.9584 15.2459 19.6817 15.2459C20.4049 15.2459 20.8676 15.0437 21.3617 14.5136C21.6672 14.1767 21.8289 13.8578 21.9188 13.3726L21.9906 12.9908L22.6375 12.9773L23.2844 12.9638L23.3922 12.8336L23.5045 12.7078L23.491 10.5201C23.4776 8.39528 23.4731 8.33239 23.3787 8.0988C23.1586 7.55973 22.651 7.08805 22.1479 6.96227C21.9951 6.92184 21.9053 6.87243 21.8783 6.80954C21.8559 6.76012 21.7166 6.23005 21.5684 5.62809L21.2988 4.53649L21.4381 4.4197L21.5774 4.29841L21.5594 3.82673C21.5459 3.41794 21.5235 3.31911 21.4201 3.11247C21.2719 2.83395 21.0113 2.55544 20.7733 2.43864C20.4543 2.27692 20.1668 2.24997 18.7383 2.24997H17.3547L17.3367 1.71989C17.3233 1.24821 17.3098 1.17634 17.2154 1.04157C17.157 0.960711 17.0268 0.852899 16.9235 0.807977C16.7483 0.727118 16.4697 0.722626 9.68654 0.727118C3.89162 0.727118 2.61134 0.736102 2.49904 0.785516ZM20.4318 3.06755C20.625 3.17536 20.8047 3.41794 20.8361 3.61559L20.8631 3.77731H19.1022H17.3457V3.36852V2.96423L18.8192 2.9777C20.1174 2.99118 20.3061 3.00016 20.4318 3.06755ZM20.8406 5.67302C20.9934 6.29743 21.1192 6.82302 21.1192 6.84098C21.1192 6.86345 20.2701 6.87692 19.2324 6.87692H17.3457V5.70895V4.54098H18.9539H20.5576L20.8406 5.67302ZM22.7813 9.52731V9.93161H22.4938C22.2467 9.93161 22.1928 9.91813 22.0895 9.81481C21.9861 9.71149 21.9727 9.65759 21.9727 9.41052V9.12302H22.377H22.7813V9.52731ZM7.3506 11.4814C7.74142 11.5443 8.19513 11.9037 8.40177 12.3035C8.60392 12.6943 8.60392 13.2738 8.40177 13.6646C7.8088 14.8371 6.18712 14.8371 5.61212 13.6691C5.47736 13.3996 5.46388 13.3322 5.46388 12.9863C5.46837 12.6629 5.48634 12.564 5.58966 12.3484C5.80978 11.8947 6.26798 11.5398 6.73966 11.459C6.9463 11.423 7.00919 11.4275 7.3506 11.4814ZM19.9287 11.4634C20.6205 11.5892 21.1461 12.1418 21.2315 12.8291C21.2899 13.2963 21.0383 13.9072 20.6699 14.1992C19.7625 14.9179 18.4598 14.4732 18.1723 13.3502C17.9567 12.5011 18.5451 11.6117 19.4211 11.4634C19.5514 11.441 19.6592 11.423 19.6637 11.4185C19.6637 11.4185 19.785 11.4365 19.9287 11.4634Z" fill="#7246A7"/>
<path d="M6.61822 12.3529C6.07018 12.6988 6.19146 13.5164 6.82486 13.7095C7.18424 13.8173 7.64693 13.5433 7.71432 13.1839C7.80865 12.6673 7.53912 12.308 7.036 12.2765C6.82486 12.2675 6.73502 12.281 6.61822 12.3529Z" fill="#7246A7"/>
<path d="M19.3267 12.3439C18.882 12.564 18.8191 13.2558 19.2144 13.5658C19.5244 13.8083 19.9242 13.7859 20.2027 13.5074C20.4588 13.2513 20.4902 12.8515 20.2701 12.546C20.0859 12.281 19.6457 12.1867 19.3267 12.3439Z" fill="#7246A7"/>
<path d="M10.9578 5.83027L9.30463 7.4834L8.43763 6.6209C7.88959 6.07285 7.53021 5.74941 7.44935 5.72695C7.19779 5.66855 6.95971 5.96055 7.05853 6.20312C7.08549 6.27051 7.57064 6.78262 8.13217 7.34414C9.06205 8.26953 9.16986 8.35938 9.30912 8.35938C9.44838 8.35938 9.60111 8.22012 11.2902 6.52656C12.9613 4.85996 13.123 4.68477 13.123 4.55C13.123 4.35234 12.9523 4.18164 12.7591 4.18164C12.6244 4.18164 12.4492 4.34336 10.9578 5.83027Z" fill="#7246A7"/>
<path d="M1.39393 9.29824C1.23221 9.45996 1.22772 9.62617 1.37596 9.77441L1.48377 9.88672H3.90955C5.24373 9.88672 6.36678 9.87324 6.40721 9.85977C6.48807 9.82832 6.60936 9.6127 6.60936 9.50488C6.60936 9.46445 6.55096 9.37012 6.47908 9.29824L6.34881 9.16797H3.93651H1.5242L1.39393 9.29824Z" fill="#7246A7"/>
<path d="M9.94714 10.7402C9.7944 10.8031 9.69558 10.9828 9.73151 11.1445C9.7944 11.423 9.67311 11.414 12.7907 11.414H15.6342L15.7241 11.2972C15.8499 11.14 15.8409 10.9963 15.7106 10.8435L15.6028 10.7177L12.8221 10.7088C11.2723 10.7043 10.001 10.7177 9.94714 10.7402Z" fill="#7246A7"/>
</svg>
