<svg width="34" height="34" viewBox="0 0 34 34" fill="none" xmlns="http://www.w3.org/2000/svg">
<path d="M17.0241 0.331512C7.81909 0.331512 0.357422 7.79317 0.357422 16.9982C0.357422 26.2031 7.81909 33.6648 17.0241 33.6648C26.2291 33.6648 33.6908 26.2031 33.6908 16.9982C33.6908 7.79317 26.2291 0.331512 17.0241 0.331512ZM23.6908 11.9982C24.1174 11.9982 24.5624 12.1415 24.8891 12.4665C25.5391 13.1182 25.5391 14.2115 24.8891 14.8631L18.6391 21.0615C16.7207 22.9781 13.7891 22.6915 12.2841 20.4348L10.6174 17.9348C10.1074 17.1698 10.3207 16.1032 11.0874 15.5915C11.8524 15.0815 12.9191 15.2948 13.4307 16.0615L15.0974 18.5615C15.4341 19.0665 15.8658 19.1465 16.2941 18.7165L22.4924 12.4665C22.8191 12.1415 23.2641 11.9982 23.6908 11.9982Z" fill="#36B37E"/>
</svg>
