<svg width="22" height="22" viewBox="0 0 22 22" fill="none" xmlns="http://www.w3.org/2000/svg">
<path d="M12.6672 0.618749C12.0613 0.786327 11.752 1.2418 11.7004 2.03672L11.6746 2.49219H10.1449C8.75273 2.49219 8.59805 2.50078 8.44336 2.57383C8.22852 2.66836 8.05234 2.87031 7.99219 3.08516C7.96641 3.17539 7.94922 3.74687 7.94922 4.42578C7.94922 5.3582 7.96211 5.66328 8.01367 5.86523C8.08242 6.12734 8.26719 6.45391 8.42188 6.5957C8.50352 6.67305 8.50781 6.7332 8.50781 8.70117C8.50781 11.0859 8.50352 11.043 8.89023 11.434C9.30273 11.8465 8.87734 11.8164 14.4633 11.8164C19.9418 11.8164 19.5895 11.8379 19.9805 11.4855C20.1008 11.3781 20.2254 11.2105 20.2855 11.0773L20.3887 10.8496L20.4016 8.76992L20.4145 6.69023L20.5563 6.51406C20.9172 6.07148 20.9688 5.80937 20.9688 4.36133C20.9688 3.24844 20.9387 3.025 20.7668 2.80156C20.5391 2.50078 20.4875 2.49219 18.7516 2.49219H17.1961L17.1789 1.98516C17.166 1.56836 17.1445 1.45234 17.0672 1.29766C16.934 1.04844 16.6934 0.812108 16.4355 0.687499L16.2207 0.580077L14.5449 0.571484C13.2859 0.562889 12.8176 0.57578 12.6672 0.618749ZM16.2336 1.36641C16.4484 1.52109 16.5 1.66289 16.5 2.10547C16.5 2.46211 16.4957 2.49219 16.4141 2.49219C16.3324 2.49219 16.3281 2.46211 16.3281 2.09258C16.3238 1.68008 16.3066 1.62422 16.1133 1.49101C16.0188 1.42656 15.8469 1.41797 14.4676 1.41797C12.7531 1.41797 12.723 1.42227 12.607 1.69726C12.5727 1.7832 12.5469 1.98516 12.5469 2.16992C12.5469 2.42773 12.534 2.49219 12.4824 2.49219C12.4309 2.49219 12.418 2.41914 12.418 2.08828C12.418 1.74453 12.4309 1.66719 12.5168 1.54258C12.7145 1.24609 12.7273 1.2418 14.502 1.25469C16.0875 1.26758 16.0918 1.26758 16.2336 1.36641ZM15.6406 2.29883V2.49219H14.4375H13.2344V2.29883V2.10547H14.4375H15.6406V2.29883ZM10.9227 3.92305C10.9355 4.65781 10.9355 4.6707 11.0516 4.83828C11.116 4.92851 11.2406 5.05312 11.3309 5.11328L11.4898 5.2207L14.3473 5.23359C15.9199 5.24219 17.2691 5.23359 17.3422 5.2207C17.5227 5.19062 17.8277 4.91992 17.9223 4.70937C17.991 4.56328 18.0039 4.42148 18.0039 3.8543V3.17969L19.1125 3.18828L20.2168 3.20117L20.2297 4.46016C20.2426 5.89531 20.2426 5.89961 19.8688 6.22617C19.3445 6.68594 18.3477 6.97812 16.6934 7.1543C15.8125 7.24883 15.8512 7.25312 15.7309 7.02539C15.3914 6.38516 14.532 6.11016 13.8488 6.41953C13.5609 6.55273 13.2516 6.84062 13.1484 7.07695C13.0711 7.24453 13.0883 7.24453 12.2117 7.1543C11.0086 7.02969 10.1492 6.83633 9.54766 6.55273C9.13086 6.35508 8.75703 5.98984 8.68828 5.70625C8.61523 5.42266 8.61523 3.3043 8.68828 3.23125C8.72695 3.19258 9.03633 3.17969 9.82266 3.17969H10.9098L10.9227 3.92305ZM17.3164 3.78555C17.3164 4.11641 17.2949 4.42578 17.2734 4.47305C17.2305 4.55039 17.1531 4.55469 14.4676 4.55469C12.375 4.55469 11.6918 4.5418 11.6531 4.50312C11.6188 4.46875 11.6016 4.25391 11.6016 3.81562V3.17969H14.459H17.3164V3.78555ZM14.7598 7.04258C15.0262 7.16289 15.2539 7.48945 15.2539 7.75586C15.2539 7.88477 15.1508 8.13398 15.052 8.2543C14.7469 8.61523 14.2398 8.64102 13.909 8.30586C13.5094 7.90625 13.634 7.27891 14.1582 7.04258C14.3773 6.94375 14.5406 6.94375 14.7598 7.04258ZM9.50039 7.2832C10.1277 7.53242 11.2406 7.75586 12.4309 7.86758C12.968 7.91914 12.9809 7.92344 13.0023 8.03086C13.0625 8.29727 13.1742 8.525 13.3332 8.70547C13.9004 9.35 14.8242 9.40586 15.4602 8.83008C15.6492 8.6625 15.8984 8.21563 15.8984 8.04805C15.8984 7.99219 15.9242 7.94063 15.9543 7.92773C15.9801 7.91914 16.3066 7.88047 16.6762 7.84609C17.7934 7.73438 18.6355 7.5625 19.3488 7.30469C19.5379 7.23164 19.7012 7.17578 19.7098 7.17578C19.7184 7.17578 19.7227 7.94922 19.7227 8.89453C19.7227 10.7551 19.7184 10.7852 19.4863 11L19.3703 11.1074L14.5105 11.1203C9.86133 11.1289 9.64219 11.1246 9.50039 11.0516C9.19531 10.8883 9.19531 10.8883 9.19531 8.92891C9.19531 7.96211 9.19961 7.17578 9.2082 7.17578C9.2168 7.17578 9.3457 7.22305 9.50039 7.2832Z" fill="#7246A7"/>
<path d="M7.71279 12.0055C7.41201 12.0656 6.96943 12.216 6.69873 12.3535C6.61709 12.3965 5.85225 12.8305 5.00147 13.3246C4.14639 13.8188 3.42881 14.2227 3.40303 14.2227C3.37725 14.2227 3.29131 14.1024 3.20967 13.952C2.96475 13.518 2.68975 13.3203 2.32881 13.3203C2.09248 13.3203 1.95498 13.3762 1.31904 13.7371C0.56709 14.1625 0.524121 14.2012 0.403809 14.4547C0.274902 14.7297 0.274902 14.9574 0.403809 15.2324C0.455371 15.3484 1.21162 16.702 2.07959 18.2402C3.80693 21.2953 3.81553 21.3082 4.23662 21.4027C4.55029 21.4715 4.68779 21.4285 5.43545 21.0031C6.12295 20.6164 6.3249 20.4274 6.40225 20.1094C6.4667 19.8344 6.43662 19.6926 6.20459 19.2629C6.10147 19.0652 6.01553 18.8934 6.01553 18.8762C6.01553 18.8547 6.15732 18.7602 6.3335 18.6613L6.65147 18.4809L9.28545 19.1942L11.9237 19.9031L12.4394 19.9074C13.1612 19.9074 13.4319 19.8129 14.4245 19.2113C15.3741 18.6356 20.8913 15.2367 21.1062 15.0949C21.6304 14.7469 21.8452 13.8445 21.553 13.2129C21.1105 12.2461 19.9933 12.0828 18.6054 12.7832C18.4292 12.8734 17.4108 13.4578 16.3409 14.0809C14.5019 15.1508 13.9261 15.4688 13.8058 15.4688C13.7714 15.4688 13.7886 15.4 13.8487 15.2625C13.9948 14.9488 13.9819 14.4117 13.823 14.0895C13.694 13.8231 13.4233 13.5481 13.1612 13.4106C13.0667 13.3633 12.723 13.2645 12.3921 13.1871C11.8206 13.0582 10.8409 12.7488 9.34561 12.2289C8.56358 11.9582 8.21123 11.9109 7.71279 12.0055ZM9.72373 13.0883C10.8968 13.5008 11.7519 13.7586 12.3964 13.9004C12.8175 13.9949 12.9249 14.0465 13.0968 14.2399C13.5093 14.7082 13.1655 15.4215 12.5253 15.4258C12.3276 15.4258 11.6659 15.2668 10.553 14.9531C10.1276 14.8371 9.74522 14.7383 9.70654 14.7383C9.56904 14.7383 9.39717 14.9274 9.39717 15.0777C9.39717 15.3227 9.50029 15.3742 10.5401 15.6664C12.2675 16.1477 12.998 16.2766 13.5823 16.1992C14.2312 16.1133 14.1667 16.1477 16.7105 14.6609C17.789 14.0336 18.846 13.4363 19.0651 13.3332C19.9374 12.9164 20.5605 12.9422 20.8655 13.3977C21.046 13.6641 21.046 14.0938 20.8698 14.3559C20.8011 14.459 19.7827 15.1035 17.123 16.7449C15.1163 17.9824 13.3675 19.0309 13.2429 19.0781C12.8733 19.2156 12.4565 19.2672 12.1257 19.207C11.971 19.1813 10.6905 18.8504 9.28115 18.4723C7.87608 18.0942 6.67295 17.7848 6.6085 17.7805C6.54404 17.7762 6.31631 17.875 6.07568 18.0168C5.69756 18.2274 5.646 18.2445 5.60303 18.1844C5.52139 18.0598 3.78545 14.9789 3.76397 14.9102C3.74678 14.8629 4.14209 14.6137 5.31943 13.9348C7.0167 12.9551 7.34756 12.7875 7.75576 12.693C8.20264 12.5899 8.44326 12.6414 9.72373 13.0883ZM2.43193 14.0422C2.4749 14.068 5.43975 19.2715 5.67178 19.7227C5.75342 19.8859 5.75772 19.9117 5.69756 19.9977C5.66318 20.0535 5.3667 20.2469 5.04014 20.4317C4.48584 20.741 4.44287 20.7582 4.34404 20.7067C4.27529 20.6637 3.7124 19.7141 2.60811 17.7676C1.22021 15.3141 0.983887 14.8715 1.01826 14.7856C1.03975 14.7125 1.22881 14.5836 1.63271 14.3473C2.19131 14.025 2.32881 13.9734 2.43193 14.0422Z" fill="#7246A7"/>
<path d="M1.81736 14.8887C1.67986 15.0262 1.66697 15.0605 1.68846 15.2195C1.72283 15.4773 1.88182 15.6191 2.13104 15.6191C2.29861 15.6191 2.34588 15.5977 2.4533 15.4773C2.724 15.1723 2.52205 14.7383 2.10096 14.7383C2.00643 14.7383 1.92479 14.7812 1.81736 14.8887Z" fill="#7246A7"/>
</svg>
