<svg width="22" height="22" viewBox="0 0 22 22" fill="none" xmlns="http://www.w3.org/2000/svg">
<path d="M10.2998 0.408245C9.95605 0.476995 9.61659 0.627386 9.41894 0.794964C9.28144 0.91098 9.10956 1.19028 9.10956 1.2977C9.10956 1.32778 8.94198 1.4309 8.73573 1.52543C7.60136 2.04106 6.68183 3.07231 6.26933 4.27973C6.12323 4.72231 6.01581 5.27661 6.01581 5.62465C6.01581 5.86528 6.01152 5.86957 5.86972 5.92114C5.66777 5.99418 5.38847 6.31215 5.32831 6.53559C5.17792 7.08559 5.55605 7.67426 6.09316 7.72582L6.29941 7.74301L6.38964 8.10395C6.69472 9.277 7.51542 10.2954 8.70136 10.9829C8.76581 11.0172 8.71425 11.043 8.41777 11.1247C7.92792 11.2579 7.37792 11.477 6.81503 11.7649C6.49706 11.9282 6.33808 11.9883 6.32519 11.9497C6.31659 11.9196 6.26933 11.8594 6.21777 11.8122C6.13612 11.7391 6.06308 11.7305 5.41425 11.7305C4.86425 11.7305 4.68378 11.7434 4.61503 11.795C4.56347 11.825 4.46894 12.0012 4.40019 12.1774C4.27987 12.4954 4.27558 12.4997 4.06503 12.5684C3.94472 12.6071 3.75566 12.6887 3.63964 12.7489L3.42909 12.8563L3.13261 12.7231C2.66855 12.5125 2.67284 12.5125 2.07128 13.1184C1.78339 13.4106 1.54706 13.6856 1.54706 13.7243C1.54706 13.7672 1.60292 13.9305 1.67597 14.0938C1.74472 14.2571 1.80488 14.4032 1.80488 14.4247C1.80488 14.4461 1.73612 14.6223 1.65448 14.82C1.57284 15.0133 1.50409 15.2024 1.50409 15.2325C1.50409 15.2625 1.36659 15.3399 1.19472 15.4043C0.700578 15.5891 0.713469 15.5719 0.696281 16.354C0.674797 17.252 0.6705 17.2391 1.2205 17.4539C1.46112 17.5485 1.47831 17.5657 1.54706 17.7676C1.59003 17.8879 1.66308 18.0641 1.71464 18.1629C1.83066 18.395 1.83066 18.4122 1.67167 18.7602C1.58573 18.9579 1.55136 19.0911 1.56855 19.1641C1.60722 19.3145 2.52245 20.2297 2.66855 20.2598C2.74589 20.277 2.8748 20.2469 3.07245 20.1567C3.4205 19.9977 3.43339 19.9977 3.66542 20.1137C3.76425 20.1653 3.94042 20.2383 4.06073 20.2813C4.26698 20.35 4.27987 20.3629 4.383 20.6293C4.58495 21.145 4.57636 21.1407 5.43144 21.1407C6.20917 21.1407 6.23495 21.1278 6.40253 20.6895C6.45839 20.5477 6.51425 20.4145 6.53573 20.3973C6.56152 20.3629 7.18026 20.0922 7.35214 20.0364C7.39081 20.0278 7.55839 20.075 7.72597 20.1481C7.89355 20.2211 8.06112 20.2813 8.10409 20.2813C8.14277 20.2813 8.41777 20.045 8.70995 19.7571C9.17402 19.2973 9.23847 19.2157 9.23847 19.0911V18.9493H10.0764H10.91L10.8885 19.22C10.8541 19.5981 10.9615 20.1008 11.1076 20.2254C11.3267 20.4145 11.3912 20.3801 12.1217 19.6539L12.7963 18.9793L13.0971 19.0567L13.3978 19.1297L13.4666 19.3747C13.5053 19.5122 13.5353 19.6497 13.5353 19.684C13.5353 19.7184 13.2646 20.0149 12.9295 20.3457C12.5943 20.6766 12.2978 21.0075 12.2635 21.0848C12.1475 21.3469 12.2978 21.5231 12.7103 21.609C13.2088 21.7122 13.6728 21.652 14.1799 21.4114C14.9834 21.029 15.5334 20.0793 15.4517 19.22L15.426 18.9536L17.3424 18.9407L19.2588 18.9278L19.3404 18.8247C19.4435 18.7 19.4478 18.4465 19.3576 17.9567C19.233 17.2864 18.9924 16.5215 18.7045 15.8684C18.6873 15.8254 18.7517 15.8125 18.958 15.8125C19.2975 15.8125 19.8303 15.6836 20.1053 15.5289C20.9732 15.0606 21.4502 14.0465 21.2525 13.1098C21.1709 12.7274 21.0635 12.5899 20.8443 12.5899C20.7111 12.5899 20.6338 12.65 20.0279 13.2516L19.3576 13.9176L19.0826 13.8403C18.7818 13.7586 18.7689 13.7457 18.6787 13.402L18.6142 13.1571L19.276 12.4997C19.8904 11.8852 19.9377 11.8293 19.9377 11.6789C19.9377 11.4211 19.7959 11.3309 19.2889 11.2579C18.2017 11.1032 17.1361 11.8122 16.8225 12.8993L16.7537 13.1485L16.4228 12.8649C15.5248 12.0957 14.1541 11.3739 13.0971 11.1075L12.8092 11.0344L13.1787 10.7981C13.6685 10.493 14.0467 10.1579 14.3818 9.73246C14.7943 9.21254 15.0435 8.67114 15.2799 7.78598C15.2885 7.7602 15.3572 7.73442 15.4346 7.73442C15.6193 7.73012 15.89 7.60551 16.0361 7.45082C16.4744 6.98246 16.2982 6.12309 15.7225 5.92114C15.615 5.88246 15.6021 5.85668 15.5764 5.57309C15.4861 4.54184 15.2154 3.78989 14.6654 3.01215C14.2357 2.41059 13.4365 1.75747 12.7877 1.48246C12.5428 1.37934 12.5041 1.34496 12.4439 1.18168C12.2978 0.803558 11.9025 0.537151 11.2924 0.412542C10.9014 0.330902 10.6951 0.330902 10.2998 0.408245ZM11.2064 1.09575C11.5631 1.17739 11.7607 1.2934 11.7994 1.4395C11.8123 1.49965 11.7521 2.10981 11.6662 2.79731L11.5029 4.0434L11.5889 4.15942C11.6576 4.25395 11.7092 4.27543 11.8596 4.27543C12.1517 4.27543 12.1775 4.21098 12.3193 3.09379C12.431 2.23871 12.4525 2.127 12.5213 2.13129C12.6846 2.14848 13.3076 2.57387 13.6428 2.90043C14.3517 3.59653 14.7557 4.41293 14.8631 5.38403C14.8889 5.61176 14.9103 5.80942 14.9103 5.82231C14.9103 5.8352 14.5838 5.84379 14.1799 5.84379H13.4494V4.70082V3.55786L13.3205 3.42895C13.2088 3.32153 13.1658 3.30434 13.0498 3.32582C12.7662 3.38168 12.7619 3.40317 12.7619 4.68793V5.84379H10.8068H8.85605L8.84316 4.67934L8.83027 3.51489L8.70995 3.41176C8.55526 3.27856 8.40487 3.27856 8.27167 3.41606L8.16425 3.51918V4.68364V5.84379H7.43378H6.70331V5.65473C6.70331 5.34536 6.82792 4.7395 6.96112 4.39145C7.31777 3.46762 8.06112 2.62543 8.89042 2.21293C9.01503 2.14848 9.12245 2.10551 9.13105 2.11411C9.13964 2.1227 9.1955 2.51371 9.25566 2.98637C9.40175 4.12075 9.40175 4.11645 9.50058 4.21528C9.6123 4.327 9.85722 4.3227 9.96894 4.21098C10.085 4.09496 10.0807 3.96176 9.90448 2.62543C9.77128 1.59848 9.76269 1.47817 9.81855 1.38793C9.90448 1.25903 10.1064 1.1559 10.3986 1.09145C10.7209 1.0184 10.8713 1.0184 11.2064 1.09575ZM15.5205 6.60434C15.615 6.69028 15.6236 6.88793 15.5291 6.97817C15.4689 7.03832 14.9791 7.04692 10.7853 7.04692H6.10605L6.04159 6.95239C5.95136 6.82348 5.95566 6.72036 6.05878 6.61723C6.14472 6.53129 6.20058 6.53129 10.7939 6.53129C15.0564 6.53129 15.4475 6.53559 15.5205 6.60434ZM14.5451 7.8934C14.5107 8.09965 14.2744 8.65395 14.0853 8.97192C13.8662 9.34575 13.1486 10.0375 12.749 10.2653C11.7736 10.8153 10.6564 10.9356 9.62519 10.6047C8.42206 10.218 7.46386 9.25551 7.09433 8.06098C7.04706 7.902 7.00409 7.7602 7.00409 7.75161C7.00409 7.74301 8.70995 7.73442 10.7896 7.73442H14.5752L14.5451 7.8934ZM11.5201 11.5157C13.4107 11.709 15.1123 12.4997 16.4271 13.8059L16.8139 14.1883L15.3357 15.6665L13.8576 17.1489L13.5783 17.1145C12.6201 17.0028 11.8424 17.3122 11.3396 18.0039L11.1506 18.2618H10.1064C9.53066 18.2618 9.06659 18.2489 9.07519 18.2274C9.08378 18.2102 9.14823 18.0512 9.21698 17.8665L9.34589 17.5399L9.62519 17.4411C10.0978 17.2735 10.0978 17.2735 10.0978 16.4227C10.0978 15.5762 10.1021 15.5805 9.64237 15.4215C9.45761 15.3528 9.34589 15.2883 9.32011 15.2325C9.30292 15.1852 9.22128 14.9832 9.13534 14.7856L8.98495 14.4247L9.11386 14.1454C9.32011 13.6899 9.31151 13.677 8.73144 13.0969C8.15136 12.5125 8.13847 12.5082 7.6787 12.7188L7.39941 12.8477L7.08144 12.7016L6.76777 12.5555L7.30487 12.2934C8.65409 11.6403 10.0978 11.3739 11.5201 11.5157ZM18.3994 12.3879C18.1631 12.6329 17.9482 12.8821 17.9225 12.9422C17.8881 13.0325 17.9139 13.1786 18.0299 13.6297C18.1158 13.9434 18.2146 14.2356 18.2533 14.2743C18.3521 14.3731 19.4349 14.6653 19.5639 14.6309C19.6154 14.6137 19.8689 14.3946 20.1267 14.1411L20.5908 13.6856L20.565 13.8747C20.5006 14.2957 20.1096 14.7727 19.6584 14.979C19.3447 15.125 18.915 15.1594 18.5971 15.0649C18.1373 14.9317 18.2877 14.8243 16.4228 16.6805C15.4947 17.6086 14.7041 18.425 14.6697 18.4895C14.6096 18.5969 14.6139 18.6356 14.6783 18.8332C14.79 19.1512 14.7771 19.6368 14.6568 19.9461C14.4764 20.4145 13.9478 20.8528 13.4494 20.9473C13.3076 20.9774 13.3205 20.9559 13.7846 20.4875C14.2014 20.0579 14.2658 19.9762 14.2658 19.8516C14.2658 19.5938 14.008 18.7043 13.9049 18.6141C13.806 18.5239 12.8951 18.2618 12.6803 18.2618C12.56 18.2618 12.4697 18.3305 12.0529 18.7387L11.5674 19.2114L11.606 19.0266C11.7908 18.2102 12.59 17.6602 13.4107 17.7934C13.5568 17.8149 13.7115 17.8536 13.7545 17.875C13.9564 17.9825 13.9908 17.9524 15.7826 16.1649L17.5357 14.4161L17.5185 14.2442C17.5057 14.1497 17.4713 13.9348 17.4412 13.7629C17.3166 13.0582 17.6818 12.3922 18.365 12.07C18.5111 12.0012 18.6744 11.9454 18.7303 11.9454C18.8205 11.9454 18.7732 12.0098 18.3994 12.3879ZM5.86972 12.6973C6.00292 13.0282 6.05878 13.0754 6.42402 13.1915C6.59159 13.243 6.84511 13.3504 6.9955 13.4321C7.31777 13.6082 7.38652 13.6082 7.683 13.4707C7.81191 13.4106 7.93651 13.3633 7.96659 13.3633C7.99237 13.3633 8.12128 13.4707 8.25019 13.5997C8.48222 13.8317 8.48222 13.836 8.42636 13.9778C8.39628 14.0508 8.34042 14.1969 8.30175 14.2957L8.233 14.4762L8.40917 14.8543C8.508 15.0606 8.61972 15.3442 8.66269 15.4817C8.75292 15.7739 8.80019 15.8254 9.13534 15.9586L9.38886 16.0618L9.40175 16.4227L9.41464 16.7879L9.10956 16.9039C8.7873 17.0329 8.75292 17.0715 8.6498 17.4153C8.61542 17.5399 8.508 17.7891 8.41777 17.9739C8.32753 18.1586 8.25019 18.3434 8.25019 18.3864C8.25019 18.4336 8.30605 18.5926 8.3748 18.7473L8.49941 19.0266L8.25019 19.2715L7.99667 19.5207L7.74316 19.409C7.408 19.2586 7.29628 19.2629 6.96112 19.4391C6.80644 19.5207 6.54433 19.6282 6.37245 19.6797C6.20058 19.7313 6.04159 19.7957 6.02011 19.8258C5.99433 19.8559 5.92987 20.0063 5.86972 20.1567L5.76659 20.4317L5.40566 20.4446L5.04472 20.4575L4.94589 20.1782C4.82987 19.843 4.77402 19.7915 4.42597 19.6754C4.27558 19.6282 4.00058 19.5122 3.81581 19.4219C3.44628 19.2415 3.43769 19.2415 3.03378 19.4176L2.81894 19.5122L2.56972 19.2586L2.3162 19.0094L2.41073 18.7946C2.58691 18.3907 2.58691 18.3821 2.40644 18.0125C2.3162 17.8278 2.20019 17.5528 2.15292 17.4024C2.03691 17.0543 1.98534 16.9985 1.65019 16.8825L1.37519 16.7836V16.4313V16.0789L1.66737 15.9629C1.82636 15.8985 1.98105 15.8297 2.00683 15.8039C2.03691 15.7782 2.10136 15.6278 2.14863 15.4688C2.19589 15.3098 2.30331 15.0391 2.38925 14.8672C2.47519 14.6954 2.54394 14.5149 2.54823 14.459C2.54823 14.4075 2.49237 14.2442 2.42792 14.0981L2.30761 13.8317L2.55683 13.5782L2.80175 13.3289L3.08105 13.4536C3.23573 13.5223 3.39902 13.5782 3.44198 13.5782C3.48925 13.5782 3.64823 13.518 3.79433 13.4407C3.94042 13.3676 4.21542 13.2516 4.40448 13.1829C4.59355 13.1184 4.77402 13.0282 4.80409 12.9895C4.83417 12.9465 4.89862 12.8004 4.95019 12.6629L5.04042 12.4137L5.40136 12.4266L5.76659 12.4395L5.86972 12.6973ZM18.3607 16.8696C18.4982 17.2649 18.6916 18.0383 18.6916 18.1973C18.6916 18.2532 18.5111 18.2618 17.265 18.2618H15.8342L16.9299 17.1661L18.0256 16.0704L18.1158 16.2551C18.1674 16.3582 18.2791 16.6332 18.3607 16.8696Z" fill="#7246A7"/>
<path d="M5.07028 14.0508C4.26676 14.1625 3.56208 14.6911 3.22692 15.4301C2.6984 16.5946 3.18395 17.9911 4.30973 18.5583C5.91247 19.3618 7.7902 18.2188 7.7945 16.4399C7.7945 15.7653 7.56676 15.2153 7.08981 14.7383C6.5527 14.2012 5.80504 13.9477 5.07028 14.0508ZM5.69333 14.7426C6.21325 14.8372 6.6859 15.1852 6.91793 15.645C7.36051 16.5129 7.02536 17.5184 6.15309 17.9481C5.83942 18.1028 5.80934 18.1114 5.39254 18.1114C5.01872 18.1114 4.93278 18.0942 4.71364 17.9954C4.36989 17.8321 4.02184 17.4926 3.85426 17.1489C3.72965 16.8868 3.71676 16.8309 3.71676 16.4356C3.71676 16.0188 3.72536 15.9887 3.88004 15.675C4.16364 15.095 4.69215 14.7512 5.37536 14.6997C5.40973 14.6997 5.55582 14.7168 5.69333 14.7426Z" fill="#7246A7"/>
</svg>
