<svg width="23" height="24" viewBox="0 0 23 24" fill="none" xmlns="http://www.w3.org/2000/svg">
<path d="M3.42871 1.31641C2.87695 2.20996 0.904297 5.4668 0.904297 5.48633C0.904297 5.49609 1.65137 5.50586 2.55957 5.50586H4.21484L4.26367 5.36914C4.28809 5.2959 4.6543 4.2998 5.07422 3.15234C5.49414 2.00488 5.83594 1.04297 5.83594 1.01367C5.83594 0.984375 5.4502 0.964844 4.74219 0.964844H3.64844L3.42871 1.31641Z" fill="#7246A7"/>
<path d="M6.7 0.999038C6.68535 1.02345 6.31914 2.01466 5.88457 3.21095C5.44512 4.40724 5.0789 5.4131 5.06914 5.44728C5.04961 5.49611 5.3914 5.50587 6.74394 5.49611L8.44805 5.48146L8.72148 3.25978C8.87285 2.03908 8.98515 1.02345 8.97539 0.999038C8.96562 0.979507 8.45293 0.964859 7.83769 0.964859C7.22246 0.964859 6.70976 0.979507 6.7 0.999038Z" fill="#7246A7"/>
<path d="M9.77142 1.09668C9.71283 1.41895 9.23919 5.46191 9.26361 5.48145C9.27826 5.49609 10.0449 5.50098 10.9677 5.49609L12.6474 5.48145L12.374 3.23535C12.2177 2 12.0908 0.984375 12.0908 0.974609C12.0859 0.969727 11.5732 0.964844 10.9433 0.964844H9.80072L9.77142 1.09668Z" fill="#7246A7"/>
<path d="M12.916 1.07227C12.916 1.2041 13.3945 5.2373 13.4287 5.39355L13.4531 5.50586H15.1377C16.0654 5.50586 16.8223 5.49609 16.8223 5.48145C16.8223 5.45215 15.3232 1.3457 15.2305 1.12109L15.167 0.964844H14.0439H12.916V1.07227Z" fill="#7246A7"/>
<path d="M16.041 0.999023C16.041 1.02344 16.4072 2.04395 16.8564 3.26953L17.6719 5.50586H19.3223C20.2305 5.50586 20.9727 5.49121 20.9727 5.4668C20.9678 5.44727 20.3574 4.43164 19.6104 3.21094L18.2578 0.989257L17.1494 0.974609C16.5391 0.969726 16.041 0.979492 16.041 0.999023Z" fill="#7246A7"/>
<path d="M0.572266 7.22949L0.586914 8.17187L0.743164 8.48925C1.40723 9.83691 3.25781 9.83203 3.92188 8.48437C4.04883 8.22558 4.05371 8.18652 4.06836 7.24902L4.08789 6.28711H2.32031H0.552734L0.572266 7.22949Z" fill="#7246A7"/>
<path d="M4.8791 6.36035C4.86446 6.39941 4.85957 6.80957 4.86934 7.27344C4.88887 8.00098 4.90352 8.15723 5.00117 8.39648C5.15254 8.78223 5.47481 9.12891 5.8752 9.32422C6.17305 9.4707 6.24141 9.48535 6.6418 9.48535C7.02266 9.48047 7.12032 9.46582 7.36934 9.34375C7.72578 9.17285 8.02852 8.875 8.21407 8.52344C8.35078 8.26953 8.35078 8.25 8.36543 7.27344L8.38008 6.28711H6.6418C5.15254 6.28711 4.90352 6.29688 4.8791 6.36035Z" fill="#7246A7"/>
<path d="M9.19044 6.32129C9.13673 6.37012 9.15137 7.58594 9.20509 7.9668C9.29786 8.59668 9.64454 9.06543 10.2305 9.34863C10.46 9.46094 10.5625 9.48047 10.9385 9.48535C11.3096 9.48535 11.4219 9.46582 11.6465 9.3584C11.9834 9.20215 12.2275 8.99219 12.4229 8.68945C12.6621 8.30859 12.7256 7.97168 12.7109 7.08789L12.6963 6.31152L10.958 6.29688C10.0059 6.29199 9.20997 6.30176 9.19044 6.32129Z" fill="#7246A7"/>
<path d="M13.502 7.17583C13.5068 8.18169 13.5557 8.41119 13.8437 8.78716C14.6738 9.87115 16.2803 9.6856 16.8613 8.44536C16.9883 8.18169 16.9932 8.1231 17.0078 7.22466L17.0273 6.28716H15.2646H13.502V7.17583Z" fill="#7246A7"/>
<path d="M17.8086 7.2246C17.8232 8.13768 17.8281 8.17674 17.96 8.46483C18.4043 9.42186 19.6104 9.79295 20.4795 9.24608C20.7334 9.08495 21.0557 8.71385 21.1826 8.4453C21.2754 8.24022 21.29 8.11327 21.3047 7.24901L21.3242 6.2871H19.5566H17.7891L17.8086 7.2246Z" fill="#7246A7"/>
<path d="M4.15137 9.48047C3.58496 10.0615 2.91602 10.3301 2.17383 10.2715C1.97363 10.2568 1.75879 10.2324 1.7002 10.2129L1.58789 10.1836V14.9004V19.6172H3.98047H6.37305V18.6699C6.37305 17.7324 6.37305 17.7178 6.49023 17.5811L6.60742 17.4443L8.49219 17.4297L10.377 17.415V15.9844C10.377 14.5098 10.4014 14.29 10.5723 14.1973C10.6943 14.1338 14.8936 14.1338 15.0156 14.1973C15.167 14.2803 15.2109 14.5244 15.2109 15.3496V16.1504H16.8223H18.4336V14.0801C18.4336 12.9424 18.4482 11.9707 18.4629 11.9268C18.5312 11.751 18.7412 11.707 19.5322 11.707H20.2891V10.9453V10.1836L20.1816 10.2129C20.1182 10.2324 19.9033 10.2568 19.7031 10.2715C19.2539 10.3057 18.7852 10.208 18.3701 9.98828C18.082 9.83203 17.6475 9.45117 17.4912 9.22168L17.4131 9.09961L17.3057 9.24609C16.9443 9.72461 16.3242 10.1201 15.7578 10.2373C14.9082 10.4131 14.0635 10.1396 13.4238 9.48535L13.0771 9.12891L12.8965 9.35352C12.2227 10.1836 11.0654 10.501 10.0645 10.125C9.64941 9.96875 9.37109 9.77344 9.05371 9.41699L8.79492 9.12891L8.48242 9.46582C7.95508 10.0322 7.20312 10.335 6.44629 10.2764C5.7334 10.2178 5.06934 9.86133 4.61523 9.28516L4.49316 9.12891L4.15137 9.48047Z" fill="#7246A7"/>
<path d="M19.2148 17.7617V23.0352H20.8262H22.4375V17.7617V12.4883H20.8262H19.2148V17.7617Z" fill="#7246A7"/>
<path d="M11.168 18.9678L11.1826 23.0107H12.7939H14.4053L14.4199 18.9678L14.4297 14.9297H12.7939H11.1582L11.168 18.9678Z" fill="#7246A7"/>
<path d="M15.2109 19.9834V23.0352L16.8125 23.0254L18.4092 23.0107L18.4238 19.9688L18.4336 16.9316H16.8223H15.2109V19.9834Z" fill="#7246A7"/>
<path d="M7.16406 20.6035L7.17871 23.0107L8.78027 23.0254L10.377 23.0352V20.6182V18.2012H8.76562H7.1543L7.16406 20.6035Z" fill="#7246A7"/>
</svg>
