<svg width="22" height="22" viewBox="0 0 22 22" fill="none" xmlns="http://www.w3.org/2000/svg">
<path d="M1.28906 0.494132C1.28906 0.541398 4.10352 2.62109 4.14648 2.6039C4.19375 2.58671 6.86641 0.58007 6.93945 0.51132C6.96094 0.489836 5.89961 0.472648 4.13359 0.472648C2.56953 0.472648 1.28906 0.481242 1.28906 0.494132Z" fill="#7246A7"/>
<path d="M14.6909 0.571484C14.5878 0.627344 14.446 0.75625 14.3729 0.855078L14.244 1.03984L14.2311 3.10664C14.2225 4.50312 14.2311 5.2293 14.2655 5.33672C14.3257 5.54727 14.4932 5.74062 14.7124 5.85664L14.8885 5.95117H17.8749H20.8612L21.0546 5.84375C21.1577 5.78359 21.3038 5.65039 21.3768 5.55156L21.5057 5.3625V3.20547V1.04414L21.3897 0.876563C21.3253 0.786328 21.2007 0.661719 21.1104 0.601562L20.9514 0.494141L17.9178 0.48125L14.8843 0.472656L14.6909 0.571484ZM18.4593 2.05391C18.8374 2.24297 19.2112 2.45352 19.2885 2.51367C19.701 2.86602 19.701 3.53203 19.2843 3.89297C19.2026 3.96172 18.803 4.18086 18.3905 4.38281C17.7159 4.71367 17.6214 4.74805 17.4022 4.74805C17.0585 4.74375 16.7835 4.57617 16.6202 4.2582C16.4999 4.03477 16.4999 4.01758 16.4999 3.27852C16.4999 2.44492 16.5385 2.22578 16.719 2.00664C16.9167 1.76602 17.1573 1.66719 17.4882 1.68867C17.7331 1.70586 17.8491 1.74883 18.4593 2.05391Z" fill="#7246A7"/>
<path d="M17.4023 3.20117C17.4023 3.54492 17.4109 3.82422 17.4238 3.82422C17.4668 3.82422 18.6484 3.22266 18.6484 3.20117C18.6484 3.17969 17.4668 2.57812 17.4238 2.57812C17.4109 2.57812 17.4023 2.85742 17.4023 3.20117Z" fill="#7246A7"/>
<path d="M0.498438 1.14297C0.485547 1.18164 0.472656 2.11836 0.472656 3.22695C0.472656 4.95 0.48125 5.26797 0.537109 5.40547C0.623047 5.60742 0.751953 5.74062 0.966797 5.85664C1.13867 5.95117 1.15156 5.95117 4.125 5.95117H7.11133L7.30469 5.84375C7.40781 5.78359 7.55391 5.65039 7.62695 5.55156L7.75586 5.3625L7.76875 3.27422C7.77305 2.12695 7.76875 1.16016 7.76016 1.13008C7.74297 1.09141 7.13281 1.52539 6.01562 2.36328C4.08203 3.81133 4.16367 3.76836 3.78984 3.51484C3.67813 3.4375 2.90039 2.86172 2.05391 2.23008C0.906641 1.36641 0.515625 1.0957 0.498438 1.14297Z" fill="#7246A7"/>
<path d="M10.2223 6.09721L10.0977 6.22182V7.06401C10.0977 7.58823 10.1148 7.94057 10.1449 8.00932C10.2652 8.26714 10.6691 8.3144 10.8754 8.09526C10.9742 7.98784 10.9785 7.96206 10.9914 7.16284C11.0043 6.45815 10.9957 6.31636 10.9355 6.20464C10.7937 5.94253 10.4328 5.88667 10.2223 6.09721Z" fill="#7246A7"/>
<path d="M12.6457 7.83315C12.0527 8.42612 12.0312 8.4519 12.0312 8.62378C12.0312 8.96753 12.3535 9.18667 12.6543 9.04057C12.7316 9.0062 13.0367 8.7312 13.3289 8.43042C13.9004 7.85034 13.9605 7.73862 13.8574 7.4937C13.7844 7.31323 13.6383 7.2187 13.432 7.2187C13.2688 7.2187 13.2301 7.24878 12.6457 7.83315Z" fill="#7246A7"/>
<path d="M5.31083 10.7938C4.58036 12.3364 3.9745 13.6297 3.9659 13.6641C3.95731 13.7028 4.61473 14.3903 5.68036 15.4516L7.412 17.179L10.235 15.8383C11.7905 15.0993 13.071 14.4848 13.0839 14.4762C13.0925 14.4633 11.6487 13.0024 9.86981 11.2235L6.63426 7.99224L5.31083 10.7938Z" fill="#7246A7"/>
<path d="M9.46618 9.44457C9.43181 9.46606 9.77985 9.84418 10.5275 10.5918C11.2537 11.318 11.649 11.6832 11.6619 11.6403C11.722 11.4469 11.7263 11.1504 11.6705 10.8754C11.4857 9.98598 10.7724 9.4102 9.86579 9.4102C9.67243 9.4102 9.49626 9.42739 9.46618 9.44457Z" fill="#7246A7"/>
<path d="M12.972 10.2223C12.7615 10.4328 12.8174 10.7938 13.0795 10.9356C13.1912 10.9957 13.333 11.0043 14.0377 10.9914C14.8369 10.9785 14.8627 10.9742 14.9701 10.8754C15.1892 10.6691 15.142 10.2652 14.8842 10.1449C14.8154 10.1148 14.4631 10.0977 13.9388 10.0977H13.0967L12.972 10.2223Z" fill="#7246A7"/>
<path d="M17.0973 14.3473C17.0285 14.416 16.9727 14.5148 16.9727 14.5664C16.9727 14.7512 16.8523 14.9531 16.702 15.0176C16.5301 15.0863 16.4012 15.0648 16.2164 14.923C16.1305 14.8586 16.023 14.8242 15.9199 14.8242C15.7652 14.8242 15.718 14.8586 15.2883 15.2883C14.8629 15.7137 14.8242 15.7652 14.8242 15.9156C14.8242 16.0145 14.8629 16.1348 14.9316 16.2336C15.1508 16.5559 15.0176 16.8996 14.6438 16.9555C14.5277 16.977 14.416 17.0285 14.343 17.1059L14.2227 17.2219V17.875V18.5281L14.3473 18.6527C14.416 18.7215 14.5148 18.7773 14.5664 18.7773C14.7512 18.7773 14.9531 18.8977 15.0176 19.048C15.0863 19.2199 15.0648 19.3488 14.923 19.5336C14.8586 19.6195 14.8242 19.727 14.8242 19.8301C14.8242 19.9848 14.8586 20.032 15.2883 20.4617C15.718 20.8914 15.7652 20.9258 15.9199 20.9258C16.023 20.9258 16.1305 20.8914 16.2164 20.827C16.4012 20.6852 16.5301 20.6637 16.702 20.7324C16.8523 20.7969 16.9727 20.9988 16.9727 21.1836C16.9727 21.2352 17.0285 21.334 17.0973 21.4027L17.2219 21.5273H17.875H18.5281L18.6527 21.4027C18.7215 21.334 18.7773 21.2352 18.7773 21.1836C18.7773 20.9988 18.8977 20.7969 19.048 20.7324C19.2199 20.6637 19.3488 20.6852 19.5336 20.827C19.6195 20.8914 19.727 20.9258 19.8301 20.9258C19.9848 20.9258 20.032 20.8914 20.4617 20.4617C20.8914 20.032 20.9258 19.9848 20.9258 19.8301C20.9258 19.727 20.8914 19.6195 20.827 19.5336C20.6852 19.3488 20.6637 19.2199 20.7324 19.048C20.7969 18.8977 20.9988 18.7773 21.1836 18.7773C21.2352 18.7773 21.334 18.7215 21.4027 18.6527L21.5273 18.5281V17.875V17.2219L21.4027 17.0973C21.334 17.0285 21.2352 16.9727 21.1836 16.9727C20.9988 16.9727 20.7969 16.8523 20.7324 16.702C20.6637 16.5344 20.6852 16.4141 20.827 16.2078C20.8828 16.1176 20.9258 15.993 20.9258 15.907C20.9258 15.7695 20.8785 15.7051 20.4617 15.2883C20.032 14.8586 19.9848 14.8242 19.8301 14.8242C19.727 14.8242 19.6195 14.8586 19.5336 14.923C19.3488 15.0648 19.2199 15.0863 19.048 15.0176C18.8977 14.9531 18.7773 14.7512 18.7773 14.5664C18.7773 14.5148 18.7215 14.416 18.6527 14.3473L18.5281 14.2227H17.875H17.2219L17.0973 14.3473ZM18.1801 16.0703C19.1512 16.2551 19.8301 17.1789 19.684 18.1199C19.5551 18.9406 18.9406 19.5551 18.1199 19.684C17.1617 19.8344 16.2422 19.1426 16.066 18.1414C15.9328 17.4023 16.3797 16.5645 17.0758 16.2379C17.4969 16.0402 17.7891 15.9973 18.1801 16.0703Z" fill="#7246A7"/>
<path d="M17.4453 17.0672C17.3379 17.1273 17.1961 17.2563 17.123 17.3551C17.007 17.5227 16.9941 17.5699 16.9941 17.8707C16.9941 18.1629 17.007 18.223 17.1102 18.3734C17.1746 18.4637 17.2992 18.5883 17.3895 18.6484C17.5227 18.7387 17.5957 18.7559 17.875 18.7559C18.1543 18.7559 18.2273 18.7387 18.3605 18.6484C18.4508 18.5883 18.5754 18.4637 18.6398 18.3734C18.743 18.223 18.7559 18.1629 18.7559 17.875C18.7559 17.5871 18.743 17.527 18.6398 17.3766C18.4508 17.1102 18.2531 16.9984 17.9223 16.9812C17.6859 16.9684 17.6043 16.9855 17.4453 17.0672Z" fill="#7246A7"/>
<path d="M2.5053 15.3485C1.47405 16.3926 1.401 16.5043 1.401 17.0586C1.39671 17.6129 1.49983 17.7676 2.46233 18.7215C3.34319 19.5938 3.48069 19.684 3.97053 19.7141C4.21546 19.727 4.32717 19.7098 4.53342 19.6368C4.76546 19.5465 4.87717 19.4563 5.71507 18.6227L6.63889 17.7032L5.02757 16.0918C4.14241 15.2067 3.40764 14.4805 3.39475 14.4805C3.38186 14.4805 2.98225 14.8715 2.5053 15.3485Z" fill="#7246A7"/>
<path d="M6.29492 19.336L5.65039 19.9805L6.27344 20.6079C6.61719 20.9516 6.98242 21.2825 7.08984 21.3469C7.51094 21.5961 8.07383 21.45 8.32305 21.0204C8.46914 20.7711 8.48633 20.393 8.36172 20.1524C8.28867 20.0192 7.02109 18.6914 6.96094 18.6914C6.94805 18.6914 6.64727 18.9793 6.29492 19.336Z" fill="#7246A7"/>
</svg>
