<svg width="20" height="22" viewBox="0 0 20 22" fill="none" xmlns="http://www.w3.org/2000/svg">
<path d="M2.67881 0.557426C2.28916 0.680473 2.06768 0.87735 1.89951 1.24649L1.79287 1.48028L1.80518 2.72305L1.81748 3.96583L1.92822 4.175C2.04717 4.40059 2.26045 4.60977 2.47783 4.71641L2.61729 4.78204V5.35216V5.92637L1.52217 7.38653C0.923341 8.19044 0.394239 8.92872 0.349122 9.03126C0.152247 9.47012 0.156349 9.37169 0.156349 13.8957C0.156349 18.5592 0.144044 18.3254 0.394239 18.8135C0.529591 19.0842 0.980763 19.5272 1.26377 19.6625C1.75596 19.9045 1.66983 19.9004 5.38584 19.9004L8.79014 19.9045L8.92959 20.1055C9.11416 20.3803 9.60225 20.8356 9.90987 21.0242C10.7507 21.5328 11.8212 21.6313 12.7399 21.2826C12.9696 21.1965 13.9909 20.6305 15.6397 19.6789C17.0384 18.8709 18.2771 18.149 18.3878 18.0752C18.8718 17.7635 19.2532 17.3205 19.5198 16.7627C19.77 16.2459 19.8233 15.9875 19.8233 15.3272C19.8233 14.8391 19.8069 14.7078 19.729 14.4453C19.4378 13.5225 18.8472 12.817 18.0187 12.415C17.4772 12.1525 17.2147 12.091 16.5831 12.091C15.7464 12.0869 15.4634 12.1895 13.9991 13.0426L13.3019 13.4486L13.2814 11.4963C13.2608 9.59317 13.2567 9.53575 13.1665 9.27735C13.0435 8.92872 12.9532 8.79747 11.7966 7.25938L10.8204 5.95508V5.36036V4.76563L10.923 4.72462C11.1034 4.65489 11.4233 4.32266 11.5218 4.09708C11.6161 3.8879 11.6202 3.85919 11.6202 2.67383V1.46387L11.5136 1.23829C11.3864 0.967583 11.1772 0.754303 10.9147 0.61895L10.7179 0.520514L6.78037 0.51231C3.68369 0.508209 2.80596 0.516411 2.67881 0.557426ZM10.6851 1.45567L10.7999 1.56641L10.8122 2.60411C10.8204 3.52696 10.8163 3.65411 10.7507 3.78126C10.7097 3.85919 10.6317 3.94532 10.5743 3.97403C10.4349 4.04376 2.98643 4.05196 2.85108 3.98223C2.62139 3.86329 2.61729 3.85098 2.61729 2.67383C2.61729 1.50489 2.62139 1.48848 2.84287 1.36954C2.90029 1.33672 4.01182 1.32442 6.74756 1.33262L10.5743 1.34083L10.6851 1.45567ZM10.0001 5.25782V5.66798H8.10928C6.14463 5.66798 6.11592 5.67208 5.97236 5.84844C5.82471 6.02481 5.90674 6.32833 6.13233 6.44317C6.19385 6.47598 6.82549 6.48829 8.20772 6.48829H10.197L11.2142 7.84591C12.2231 9.19532 12.42 9.49063 12.42 9.6752V9.76954H6.69424H0.968458L0.997169 9.63419C1.04639 9.4086 1.17764 9.21583 2.26455 7.76387C2.84697 6.98868 3.34736 6.29551 3.38018 6.21758C3.42119 6.11915 3.4376 5.90176 3.4376 5.4629V4.84766H6.71885H10.0001V5.25782ZM12.461 12.2633V13.9326L11.2224 14.6463C10.5374 15.04 9.87705 15.4297 9.75401 15.5158C9.45459 15.7127 9.02393 16.1516 8.87217 16.41L8.74912 16.6191H4.86494H0.976661V13.6045V10.5899H6.71885H12.461V12.2633ZM17.1532 12.9688C17.994 13.182 18.6421 13.7768 18.9046 14.5766C18.9866 14.8268 19.003 14.958 19.003 15.3682C18.9989 15.926 18.9251 16.2049 18.6626 16.6356C18.3878 17.0908 18.1376 17.2877 16.9481 17.9727C16.3411 18.3213 15.8284 18.6125 15.8038 18.6207C15.7587 18.633 13.2978 14.4166 13.3265 14.3838C13.3757 14.3387 15.4675 13.1492 15.6192 13.0836C16.0786 12.8826 16.6487 12.8375 17.1532 12.9688ZM13.8269 16.9309C14.4995 18.0957 15.0368 19.0637 15.0163 19.0801C14.9712 19.1211 12.8999 20.3147 12.6743 20.4295C12.4159 20.5607 11.9155 20.6797 11.6243 20.6797C10.4636 20.6756 9.43819 19.8512 9.2003 18.7232C9.02393 17.8988 9.26592 17.0949 9.87295 16.4961C10.1478 16.2254 10.32 16.1106 11.3741 15.5035C12.0304 15.1262 12.5718 14.8145 12.5841 14.8145C12.5964 14.8145 13.1542 15.766 13.8269 16.9309ZM8.38408 17.5912C8.32256 17.9809 8.31026 18.3172 8.35537 18.6289C8.38408 18.8135 8.4169 18.9899 8.4292 19.0227C8.44971 19.0719 7.99854 19.0801 5.17666 19.0719C1.94463 19.0596 1.89541 19.0596 1.71084 18.9734C1.43193 18.8422 1.22276 18.6371 1.0915 18.3623C0.993068 18.1531 0.976661 18.0629 0.976661 17.7758V17.4395H4.69268H8.41279L8.38408 17.5912Z" fill="#7246A7"/>
<path d="M4.48328 5.7131C4.15516 5.90178 4.20438 6.38166 4.56121 6.47189C4.92625 6.56213 5.21336 6.06994 4.94676 5.80334C4.83192 5.6926 4.60223 5.64338 4.48328 5.7131Z" fill="#7246A7"/>
<path d="M6.53421 11.7424C6.32503 11.8655 6.30862 11.9188 6.30862 12.6489V13.338H5.64827C4.96741 13.338 4.86898 13.3585 4.74183 13.5184C4.59417 13.6948 4.6762 13.9983 4.90179 14.1131C4.95511 14.1419 5.24632 14.1583 5.64827 14.1583H6.30862V14.8514C6.30862 15.5241 6.31273 15.5446 6.40706 15.6471C6.59163 15.8481 6.86233 15.8358 7.0223 15.6184C7.10023 15.5159 7.10843 15.438 7.12073 14.8309L7.13304 14.1583H7.76468C8.11331 14.1583 8.44144 14.1419 8.49886 14.1173C8.74905 14.0229 8.82288 13.6579 8.63011 13.4651C8.52347 13.3585 8.51526 13.3585 7.8303 13.3462L7.13714 13.3339L7.12073 12.6407C7.10843 11.9598 7.10843 11.9434 7.00179 11.8409C6.88284 11.7219 6.65316 11.6727 6.53421 11.7424Z" fill="#7246A7"/>
</svg>
