<svg width="22" height="20" viewBox="0 0 22 20" fill="none" xmlns="http://www.w3.org/2000/svg">
<path d="M6.33789 0.851938C5.69766 0.946468 5.15625 1.41053 4.9457 2.04217C4.85547 2.30428 4.85547 2.36444 4.85547 7.2285V12.1484H4.40859C3.40313 12.1484 2.40625 12.4535 1.96367 12.8918C1.70156 13.1539 1.67578 13.257 1.67578 14.0347V14.718L1.44805 14.8469C1.12148 15.0316 0.9625 15.1777 0.863672 15.384C0.782031 15.5515 0.773438 15.6504 0.773438 16.2863C0.773438 17.1113 0.794922 17.1972 1.07852 17.4722C1.72734 18.0996 3.36875 18.3703 4.83828 18.0953C4.96289 18.0738 4.98008 18.0867 5.10469 18.3058C5.3582 18.7527 5.83945 19.075 6.38086 19.1523C6.76328 19.2039 14.6996 19.2082 15.0734 19.1523C15.632 19.075 16.1648 18.7097 16.4141 18.2371L16.5215 18.0394L18.6313 18.0265L20.7453 18.0137L20.9129 17.8805C21.2395 17.6183 21.2266 17.7215 21.2266 15.2637C21.2266 12.8058 21.2395 12.909 20.9129 12.6469L20.7453 12.5137L18.6871 12.5008L16.6289 12.4879L16.6203 7.34452L16.6074 2.20116L16.5129 1.97342C16.3152 1.48358 15.9543 1.13553 15.4301 0.924984L15.1895 0.826157L10.8926 0.821859C8.5293 0.817562 6.47969 0.830454 6.33789 0.851938ZM15.4 1.26873C15.9371 1.51366 16.2379 1.95624 16.2766 2.54491L16.298 2.86717H14.5578H12.8219L12.6973 2.60936C12.6285 2.46756 12.5426 2.32147 12.5039 2.2871C12.4438 2.23124 12.1773 2.22264 10.6305 2.23124L8.83008 2.24413L8.6668 2.5535L8.50352 2.86717H6.84492H5.18633L5.20781 2.51053C5.23789 1.99491 5.45703 1.62108 5.87813 1.37616C6.26484 1.14842 6.14453 1.15272 10.8281 1.16131L15.1895 1.16991L15.4 1.26873ZM12.4223 2.78983C12.6543 3.25389 12.4395 3.21092 14.4891 3.21092H16.2852V7.85155V12.4922H15.082C14.0938 12.4922 13.8488 12.5051 13.7199 12.5566C13.5051 12.6469 13.4105 12.7371 13.316 12.9433C13.243 13.1023 13.2344 13.257 13.2344 14.8211V16.5312H9.88281H6.53125V16.0672V15.6031L6.72461 15.5086C6.98672 15.384 7.25742 15.1262 7.35195 14.9199C7.4207 14.7781 7.43359 14.632 7.43359 14.0433C7.43359 13.2269 7.39062 13.0765 7.07266 12.8144C6.7375 12.5437 5.80508 12.1914 5.40977 12.1914C5.13477 12.1914 5.15625 12.5824 5.15625 7.67538V3.21092H6.88789C7.8375 3.21092 8.63672 3.19374 8.6625 3.17655C8.68828 3.15936 8.78281 3.00467 8.87734 2.8371L9.04492 2.52342H10.6648H12.2891L12.4223 2.78983ZM5.65469 12.5566C6.20898 12.6726 6.64297 12.8617 6.8793 13.0894C7.06406 13.2699 7.08984 13.3129 7.08984 13.4719C7.08984 13.7254 6.90938 13.9144 6.47109 14.1207C5.3625 14.6535 3.58789 14.6277 2.52227 14.0691C1.69727 13.6394 1.89492 13.0508 2.98203 12.6855C3.51055 12.5094 3.97891 12.4492 4.68789 12.4707C5.03164 12.4793 5.46563 12.518 5.65469 12.5566ZM20.6508 12.8574C20.8355 12.9348 20.9258 13.1281 20.9258 13.459V13.6953L17.2434 13.6867L13.5566 13.6738L13.5437 13.5492C13.5008 13.1926 13.6598 12.866 13.8918 12.823C13.9434 12.8144 15.4516 12.8015 17.2434 12.7972C20.0105 12.793 20.5219 12.8015 20.6508 12.8574ZM20.9172 14.4558L20.9301 14.8984H17.252H13.5781V14.4472V13.9961L17.2434 14.0047L20.9043 14.0176L20.9172 14.4558ZM2.1957 14.2539C2.42344 14.4172 2.93477 14.6148 3.39453 14.7137C3.91016 14.8254 5.19922 14.8254 5.71484 14.7137C6.17461 14.6148 6.68594 14.4172 6.91367 14.2539C7.0082 14.1808 7.09844 14.125 7.11133 14.125C7.16719 14.125 7.12852 14.6621 7.05977 14.7996C6.90938 15.1219 6.26484 15.4355 5.48281 15.5687C4.92422 15.6676 3.76836 15.6332 3.28711 15.5043C2.92188 15.4055 2.48359 15.2164 2.26875 15.066C2.08828 14.9371 1.97656 14.675 1.97656 14.3699C1.97656 14.2367 1.98516 14.125 1.99805 14.125C2.01094 14.125 2.10117 14.1808 2.1957 14.2539ZM2.50508 15.5687C2.67695 15.6504 3.03789 15.7664 3.30859 15.8308C3.73828 15.9297 3.89727 15.9426 4.51172 15.9469C5.15625 15.9469 5.67188 15.891 6.09297 15.775C6.23906 15.732 6.21328 15.8566 6.03711 16.0543C5.37109 16.789 2.97773 16.9781 1.73594 16.3851C1.22031 16.1402 0.992578 15.8222 1.13438 15.5515C1.21602 15.3969 1.40508 15.225 1.61133 15.1219L1.7832 15.0359L1.98945 15.2293C2.10117 15.3324 2.3332 15.4871 2.50508 15.5687ZM20.9258 16.282C20.9258 17.4894 20.9043 17.584 20.6078 17.6828C20.3543 17.7644 13.8961 17.7387 13.7672 17.6527C13.5652 17.5195 13.5566 17.4722 13.5437 16.325L13.5309 15.2422H17.2262H20.9258V16.282ZM1.58555 16.6601C2.07969 16.9051 2.58672 17.0125 3.42461 17.034C4.21953 17.0597 4.76953 16.9953 5.29805 16.8234C5.59453 16.7246 6.03711 16.514 6.08008 16.4453C6.14883 16.3336 6.1875 16.4281 6.1875 16.7246C6.1875 17.0426 6.1832 17.0512 6.01992 17.2144C5.29375 17.9406 3.0207 18.1125 1.76602 17.541C1.2375 17.2961 1.07422 17.0855 1.07422 16.6472V16.3551L1.19453 16.4367C1.25898 16.484 1.43516 16.5828 1.58555 16.6601ZM13.2344 17.1328C13.2344 17.5539 13.3762 17.8117 13.6855 17.9535C13.8402 18.0265 13.982 18.0351 14.9875 18.0351C15.6063 18.0351 16.1133 18.048 16.1133 18.0609C16.1133 18.0781 16.0746 18.1555 16.023 18.2328C15.9156 18.4133 15.6664 18.6109 15.3957 18.7355L15.1895 18.8301H10.7422H6.29492L6.02852 18.7055C5.64609 18.5293 5.19492 18.0137 5.3668 17.9578C5.40117 17.9449 5.57734 17.8633 5.75781 17.773C6.14023 17.5797 6.41523 17.3133 6.49258 17.0512L6.54414 16.875H9.89141H13.2344V17.1328Z" fill="#7246A7"/>
<path d="M10.0932 4.30657C9.09628 4.50422 8.19823 5.2175 7.78144 6.14133C7.56659 6.60969 7.50214 6.91907 7.50214 7.48625C7.49784 8.1093 7.56659 8.3929 7.84589 8.96868C8.01776 9.31243 8.108 9.43274 8.43886 9.7636C9.11347 10.4339 9.68495 10.6874 10.6174 10.7218C11.0685 10.739 11.2146 10.7261 11.5154 10.6488C12.9764 10.2792 13.9646 9.00735 13.9689 7.49915C13.9689 6.93196 13.8916 6.58391 13.6424 6.06829C13.0021 4.74055 11.5455 4.01868 10.0932 4.30657ZM11.451 4.65461C12.1127 4.8136 12.7787 5.28625 13.174 5.88352C14.2439 7.49055 13.4662 9.69915 11.6228 10.2835C10.583 10.6144 9.45292 10.3394 8.67948 9.57024C8.09511 8.98157 7.85878 8.44446 7.8287 7.61516C7.80722 7.00071 7.86737 6.71282 8.11659 6.19719C8.41308 5.59563 8.84706 5.16594 9.47441 4.86516C9.81386 4.70188 9.97714 4.65461 10.4842 4.56868C10.656 4.54289 11.1674 4.58586 11.451 4.65461Z" fill="#7246A7"/>
<path d="M11.3266 7.28867L10.5016 8.10937L10.1406 7.74414C9.93867 7.54219 9.74102 7.36602 9.69805 7.35312C9.60352 7.32305 9.49609 7.40469 9.49609 7.50352C9.49609 7.60234 10.4027 8.49609 10.5059 8.49609C10.5531 8.49609 10.9312 8.15664 11.4598 7.62812C12.3621 6.73008 12.4352 6.62266 12.2418 6.51523C12.1602 6.47227 12.0785 6.54531 11.3266 7.28867Z" fill="#7246A7"/>
<path d="M7.14978 11.7789C7.13689 11.8133 7.1326 11.8777 7.14119 11.9207C7.15408 11.9937 7.31736 11.998 10.742 11.998H14.3299V11.8691V11.7402L10.7506 11.7273C7.66111 11.7188 7.17127 11.7273 7.14978 11.7789Z" fill="#7246A7"/>
<path d="M9.16931 13.3687C9.15642 13.4031 9.15213 13.4676 9.16072 13.5105C9.17361 13.5836 9.26385 13.5879 10.742 13.5879H12.3103V13.459V13.3301L10.7506 13.3172C9.41853 13.3086 9.1908 13.3172 9.16931 13.3687Z" fill="#7246A7"/>
<path d="M14.5622 16.1273C14.5235 16.1745 14.5192 16.2132 14.5536 16.2648C14.5923 16.3292 14.7083 16.3378 15.4087 16.3507C16.3712 16.3636 16.4227 16.355 16.4055 16.196L16.3926 16.08L15.5075 16.0671C14.7383 16.0585 14.6137 16.0671 14.5622 16.1273Z" fill="#7246A7"/>
<path d="M14.5622 16.9008C14.5235 16.9481 14.5192 16.9867 14.5536 17.0383C14.588 17.0941 14.6739 17.1156 14.9403 17.1242C15.3141 17.1371 15.4173 17.0898 15.3614 16.918C15.3356 16.8406 15.3012 16.832 14.979 16.832C14.704 16.832 14.6051 16.8492 14.5622 16.9008Z" fill="#7246A7"/>
<path d="M9.44889 17.8031C9.41022 17.8504 9.40593 17.8891 9.4403 17.9406C9.47897 18.0051 9.61647 18.0137 10.7466 18.0137H12.0098V17.8848V17.7559L10.7594 17.743C9.65514 17.7344 9.50046 17.743 9.44889 17.8031Z" fill="#7246A7"/>
</svg>
