<svg width="20" height="20" viewBox="0 0 20 20" fill="none" xmlns="http://www.w3.org/2000/svg">
<path d="M9.94141 0.046875C9.83594 0.0664062 9.59766 0.152344 9.41797 0.238281C8.84375 0.519531 8.42187 1.03516 8.26172 1.66016C8.21484 1.84766 8.20312 2.19922 8.20312 3.59375V5.29297L5.22656 5.28125C3.17187 5.27344 2.1875 5.28516 2.04687 5.3125C1.50391 5.42578 1.03516 5.80078 0.789062 6.31641C0.644531 6.62109 0.644531 6.625 0.632812 7.21094C0.617188 7.77344 0.621094 7.80859 0.699219 7.88672C0.820312 8.00781 1.02734 7.99609 1.12891 7.86719C1.20312 7.77344 1.21094 7.71094 1.21094 7.30078C1.21094 6.92969 1.22656 6.79688 1.29297 6.62109C1.38672 6.36719 1.63281 6.10547 1.90234 5.97266L2.08984 5.87891H5.07812H8.06641L8.26953 5.97266C8.52344 6.08594 8.79297 6.36719 8.89062 6.62109C8.96094 6.80859 8.96484 6.94922 8.96484 9.66797V12.5195L8.47656 12.5391C8.04297 12.5547 7.96484 12.5703 7.76562 12.668C7.47656 12.8086 7.21484 13.1016 7.10547 13.3984C7.02344 13.6211 7.00781 13.6406 6.375 14.1289C6.01953 14.4023 5.71484 14.6328 5.69922 14.6406C5.68359 14.6484 5.66406 14.4609 5.65625 14.2266C5.63672 13.5781 5.82422 13.6406 3.83594 13.625C2.35547 13.6094 2.14844 13.6016 1.98437 13.5391C1.73828 13.4492 1.46484 13.1992 1.33594 12.9531L1.23047 12.7539L1.21094 11.0508C1.19141 9.44141 1.1875 9.33984 1.11719 9.26172C1.01953 9.15625 0.808594 9.15234 0.703125 9.25781C0.628906 9.33203 0.625 9.38672 0.625 11.0117C0.625 12.8438 0.632812 12.9258 0.871094 13.3281C1.01562 13.5781 1.37109 13.8945 1.65234 14.0273C2.00391 14.1875 2.30078 14.2148 3.78125 14.2188H5.07812V14.8164C5.07812 15.4648 5.08984 15.5 5.30078 15.5625C5.41797 15.6016 5.46484 15.5703 6.23828 14.9727C6.61328 14.6836 6.94141 14.4414 6.97266 14.4297C7.01953 14.4102 7.03125 14.6719 7.03906 16.2383L7.05078 18.0664L7.16016 18.2734C7.30469 18.5469 7.53906 18.7734 7.80859 18.9023C8.02734 19.0039 8.03516 19.0039 9.09375 19.0156L10.1562 19.0273V19.375C10.1562 19.5664 10.1758 19.7656 10.1992 19.8164C10.2461 19.918 10.3828 20 10.5 20C10.5352 20 10.8477 19.7812 11.1953 19.5156L11.8203 19.0352L12.1719 19.0156C12.7695 18.9883 13.168 18.7305 13.4102 18.2148C13.5195 17.9766 13.5273 17.9258 13.5312 17.4922C13.5352 17.0469 13.5312 17.0195 13.4414 16.9492C13.332 16.8594 13.1719 16.8516 13.0625 16.9336C12.9883 16.9805 12.9766 17.0391 12.9609 17.4297C12.9375 17.9062 12.8984 18.0312 12.707 18.2109C12.5312 18.3789 12.3437 18.4375 11.9766 18.4375H11.6445L11.2031 18.7695L10.7617 19.1055L10.75 18.8516C10.7422 18.6328 10.7266 18.5859 10.6367 18.5156C10.5391 18.4414 10.4844 18.4375 9.37891 18.4375C8.33594 18.4375 8.20703 18.4297 8.06641 18.3633C7.88281 18.2773 7.71875 18.1133 7.66016 17.957C7.63281 17.8828 7.61719 17.1367 7.61719 15.7578C7.61719 13.7852 7.62109 13.6602 7.69141 13.5234C7.77734 13.3594 7.85937 13.2773 8.03516 13.1875C8.14453 13.1328 8.40234 13.125 10.2734 13.125C12.1445 13.125 12.4023 13.1328 12.5117 13.1875C12.6914 13.2773 12.7695 13.3594 12.8633 13.5352C12.9414 13.6797 12.9492 13.7656 12.9609 14.5703C12.9766 15.5586 12.9844 15.5859 13.2422 15.5859C13.3398 15.5859 13.4102 15.5586 13.4609 15.5039C13.5312 15.4258 13.5352 15.3516 13.5312 14.5156C13.5312 13.6641 13.5273 13.6016 13.4375 13.3789C13.3125 13.0625 12.9922 12.7383 12.6836 12.625C12.4687 12.543 12.3984 12.5391 11.0156 12.5391H9.57031V11.7734C9.57031 11.0586 9.57422 11.0078 9.64062 11.0352C9.93359 11.1523 10.2578 11.1719 11.9453 11.1719H13.6719V11.9492V12.7305L13.7734 12.8086C13.832 12.8555 13.918 12.8906 13.9648 12.8906C14.0234 12.8906 14.4687 12.5742 15.1641 12.0391L16.2695 11.1914L16.9336 11.168C17.5117 11.1484 17.6367 11.1289 17.8867 11.043C18.418 10.8555 18.8711 10.4727 19.1172 10C19.3867 9.49219 19.3789 9.63672 19.3672 5.45703L19.3555 1.69922L19.2422 1.42578C19.0078 0.855469 18.6367 0.457031 18.1055 0.210938C17.7383 0.0429688 17.4766 0 16.7891 0C16.2617 0 16.2031 0.0078125 16.1328 0.078125C16.0273 0.183594 16.0273 0.402344 16.1406 0.507812C16.2187 0.578125 16.2773 0.585938 16.7969 0.585938C17.6328 0.585938 17.9492 0.6875 18.3359 1.08203C18.4375 1.18359 18.5742 1.37891 18.6445 1.51953L18.7695 1.77734V5.58594V9.39453L18.6445 9.65234C18.5039 9.9375 18.1992 10.2539 17.9375 10.3867C17.6328 10.543 17.3633 10.5859 16.7148 10.5859H16.1016L15.1914 11.2852L14.2773 11.9844L14.2578 11.3594C14.2383 10.7617 14.2344 10.7305 14.1445 10.6602C14.0586 10.5898 13.9648 10.5859 12.1641 10.5859C10.2187 10.5859 10.0078 10.5703 9.71875 10.4258L9.57031 10.3516V8.63281C9.57031 7.52344 9.55469 6.84375 9.52734 6.71094C9.45703 6.375 9.30078 6.09375 9.03516 5.81641L8.78516 5.55859L8.79687 3.66797L8.80859 1.77734L8.92969 1.52344C9.05859 1.24609 9.32812 0.953125 9.58203 0.800781C9.94141 0.59375 10.0273 0.585938 12.4102 0.585938C14.5586 0.585938 14.6094 0.585938 14.6875 0.507812C14.7344 0.460938 14.7656 0.378906 14.7656 0.292969C14.7656 0.207031 14.7344 0.125 14.6875 0.078125C14.6094 0 14.5586 0 12.375 0.00390625C11.1445 0.0078125 10.0508 0.0234375 9.94141 0.046875Z" fill="#322345"/>
<path d="M14.1016 2.21875C13.9062 2.32422 13.7969 2.50391 13.7695 2.76562C13.7344 3.11328 13.6406 3.44141 13.5195 3.63281C13.457 3.73047 13.2109 4.03125 12.9688 4.30469C12.582 4.74219 12.5234 4.79688 12.4727 4.74609C12.4258 4.69922 12.2539 4.6875 11.4844 4.6875C10.5664 4.6875 10.5508 4.6875 10.4922 4.77344C10.4375 4.85156 10.4297 5.10156 10.4297 6.74609C10.4297 8.58203 10.4336 8.63672 10.5078 8.71094C10.582 8.78516 10.6367 8.78906 11.4961 8.78906C12.3555 8.78906 12.4141 8.78516 12.4805 8.71094C12.5469 8.63672 12.5508 8.63672 12.6914 8.70703C13.1016 8.91797 13.1836 8.92578 14.9414 8.92578C16.5703 8.92578 16.582 8.92578 16.7461 8.83594C16.8398 8.78906 16.9609 8.67578 17.0195 8.58594L17.1289 8.42188L17.1406 6.85938C17.1484 5.99609 17.1406 5.23438 17.1289 5.16406C17.0977 5 16.8984 4.77344 16.6992 4.68359C16.5664 4.62109 16.4336 4.60938 15.7461 4.60938C15.0039 4.60938 14.9531 4.60547 14.9805 4.53906C15.1797 4.06641 15.2344 3.57031 15.1406 3.125C15.0625 2.75391 14.875 2.37109 14.7188 2.26172C14.5508 2.14062 14.2773 2.12109 14.1016 2.21875ZM14.4648 2.91406C14.5039 2.98828 14.5547 3.17188 14.5781 3.32031C14.6367 3.66797 14.582 3.98828 14.3711 4.47656C14.2891 4.67578 14.2188 4.875 14.2188 4.92188C14.2188 4.96484 14.2617 5.04688 14.3164 5.09766L14.4102 5.19531H15.4414C16.1875 5.19531 16.4805 5.20703 16.5156 5.24219C16.5508 5.27734 16.5625 5.67188 16.5625 6.78516C16.5625 8.22266 16.5586 8.28125 16.4883 8.32031C16.3867 8.37109 13.7344 8.37109 13.4023 8.32031C13.1406 8.27734 12.918 8.17969 12.707 8.01953L12.5781 7.92578V6.77734V5.63281L13.2617 4.85547C13.707 4.35156 13.9922 3.99219 14.0781 3.82812C14.2305 3.53906 14.3359 3.17188 14.3359 2.93359C14.3359 2.73828 14.3789 2.73047 14.4648 2.91406ZM11.9922 6.73828V8.20312H11.5039H11.0156V6.73828V5.27344H11.5039H11.9922V6.73828Z" fill="#322345"/>
<path d="M4.55463 7.65234C4.49603 7.71484 4.43353 8.01953 4.29682 8.85547C4.29682 8.86328 4.01557 8.86719 3.67572 8.86719C3.08197 8.86719 3.04682 8.87109 2.95307 8.95312C2.81244 9.08203 2.80072 9.24609 2.92963 9.375C2.99994 9.44531 3.05853 9.45312 3.59369 9.45312H4.17963V9.55859C4.17572 9.62109 4.15619 9.78125 4.12885 9.92188L4.08197 10.1758L3.5351 10.1875C2.914 10.1992 2.8515 10.2266 2.8515 10.4688C2.8515 10.7188 2.93744 10.7578 3.49994 10.7773C3.76557 10.7812 3.98432 10.793 3.98432 10.7969C3.98432 10.7969 3.94916 11.0039 3.90619 11.25C3.86322 11.4961 3.82807 11.7461 3.82807 11.8008C3.82807 11.9336 3.98041 12.0703 4.12885 12.0703C4.32416 12.0703 4.37885 11.9688 4.4765 11.3789C4.52728 11.082 4.57025 10.8281 4.57025 10.8086C4.57025 10.793 4.73041 10.7812 4.92182 10.7812C5.15228 10.7812 5.27338 10.7969 5.27338 10.8242C5.27338 10.8477 5.23432 11.0859 5.19135 11.3555C5.10932 11.8438 5.10932 11.8438 5.18353 11.9492C5.289 12.0859 5.48432 12.1055 5.60541 11.9922C5.67963 11.9219 5.71088 11.8125 5.7851 11.3438L5.87494 10.7812H6.44525C7.04291 10.7812 7.24213 10.7461 7.30463 10.625C7.35932 10.5234 7.3515 10.3789 7.289 10.2891C7.23822 10.2227 7.16791 10.2109 6.61322 10.1953C5.90619 10.1719 5.9726 10.2266 6.05463 9.73438L6.1015 9.45312H6.63666C7.14838 9.45312 7.17963 9.44922 7.25775 9.36328C7.37104 9.24219 7.36713 9.08203 7.24604 8.96484C7.15619 8.87109 7.12885 8.86719 6.67963 8.86719C6.39057 8.86719 6.21088 8.85156 6.21088 8.82812C6.21088 8.80469 6.24603 8.56641 6.289 8.29297C6.36713 7.80469 6.36713 7.79297 6.29682 7.69531C6.17572 7.53516 5.89057 7.54297 5.81635 7.70703C5.79682 7.75391 5.73822 8.03125 5.69135 8.32031L5.6015 8.84766L5.24994 8.85938L4.89447 8.87109L4.96478 8.44922C5.05853 7.90625 5.05853 7.72656 4.96869 7.64453C4.87103 7.55469 4.63666 7.55859 4.55463 7.65234ZM5.50775 9.46094C5.50775 9.52344 5.38666 10.1289 5.37103 10.1562C5.35932 10.1797 5.19916 10.1953 5.01557 10.1953C4.64838 10.1953 4.664 10.2148 4.7265 9.85938C4.80463 9.41016 4.76166 9.45312 5.15619 9.45312C5.3515 9.45312 5.50775 9.45703 5.50775 9.46094Z" fill="#322345"/>
<path d="M9.1875 14.5156C8.96875 14.625 8.83594 14.7617 8.69922 15.0156C8.62891 15.1445 8.61328 15.2422 8.61328 15.5273C8.61328 15.8477 8.625 15.9062 8.74219 16.1406C8.83203 16.3281 8.94531 16.4727 9.13672 16.6484C9.39844 16.8906 9.90234 17.2187 10.1484 17.3125C10.3047 17.3711 10.4062 17.3398 10.832 17.082C11.2891 16.8086 11.6484 16.457 11.8047 16.1406C11.9219 15.9062 11.9336 15.8477 11.9336 15.5273C11.9336 15.2109 11.9219 15.1562 11.8164 14.9648C11.6953 14.7461 11.4727 14.5508 11.2383 14.4648C11.0156 14.3828 10.6602 14.4023 10.457 14.5078L10.2734 14.5977L10.0898 14.5078C9.82812 14.375 9.46484 14.3789 9.1875 14.5156ZM9.98438 15.1836C10.1133 15.3242 10.1797 15.3633 10.2734 15.3633C10.3672 15.3633 10.4336 15.3242 10.5625 15.1836C10.7109 15.0195 10.75 15 10.8945 15C11.0234 15 11.0859 15.0273 11.2031 15.1328C11.3438 15.2656 11.3477 15.2734 11.3477 15.5391C11.3477 15.7812 11.332 15.832 11.2305 15.9844C11.0898 16.1797 10.7461 16.4648 10.4688 16.6172L10.2734 16.7227L10.0859 16.6211C9.80859 16.4727 9.46875 16.1953 9.33594 16.0117C9.12891 15.7266 9.13281 15.3281 9.33984 15.1172C9.4375 15.0195 9.49219 15 9.63672 15C9.80078 15 9.83203 15.0156 9.98438 15.1836Z" fill="#322345"/>
</svg>
